<svg width="90" height="74" viewBox="0 0 90 74" fill="none" xmlns="http://www.w3.org/2000/svg">
<path d="M89.06 36.4994C89.06 37.2453 88.7637 37.9607 88.2363 38.4882C87.7088 39.0156 86.9934 39.3119 86.2475 39.3119H10.5397L39.485 68.2619C39.7613 68.5194 39.983 68.8299 40.1367 69.1749C40.2904 69.5199 40.3731 69.8923 40.3797 70.27C40.3864 70.6476 40.3169 71.0227 40.1755 71.3729C40.034 71.7231 39.8235 72.0412 39.5564 72.3083C39.2893 72.5754 38.9712 72.7859 38.621 72.9274C38.2708 73.0688 37.8957 73.1383 37.5181 73.1316C37.1404 73.125 36.768 73.0423 36.423 72.8886C36.078 72.7349 35.7675 72.5132 35.51 72.2369L1.76002 38.4869C1.23334 37.9596 0.9375 37.2447 0.9375 36.4994C0.9375 35.7541 1.23334 35.0393 1.76002 34.5119L35.51 0.761923C36.0432 0.265123 36.7484 -0.00533755 37.477 0.00751826C38.2056 0.0203741 38.9008 0.315543 39.4161 0.830842C39.9314 1.34614 40.2266 2.04134 40.2394 2.76996C40.2523 3.49859 39.9818 4.20377 39.485 4.73692L10.5397 33.6869H86.2475C86.9934 33.6869 87.7088 33.9832 88.2363 34.5107C88.7637 35.0381 89.06 35.7535 89.06 36.4994Z" fill="white"/>
</svg>
