<svg width="90" height="73" viewBox="0 0 90 73" fill="none" xmlns="http://www.w3.org/2000/svg">
<path d="M88.2375 38.4875L54.4875 72.2375C53.9543 72.7344 53.2492 73.0048 52.5205 72.9919C51.7919 72.9791 51.0967 72.6839 50.5814 72.1686C50.0661 71.6533 49.7709 70.9581 49.7581 70.2295C49.7452 69.5009 50.0157 68.7957 50.5125 68.2625L79.4578 39.3125H3.75C3.00408 39.3125 2.28871 39.0162 1.76126 38.4888C1.23382 37.9613 0.9375 37.246 0.9375 36.5C0.9375 35.7541 1.23382 35.0387 1.76126 34.5113C2.28871 33.9839 3.00408 33.6875 3.75 33.6875H79.4578L50.5125 4.73754C50.0157 4.20438 49.7452 3.4992 49.7581 2.77058C49.7709 2.04195 50.0661 1.34675 50.5814 0.831452C51.0967 0.316154 51.7919 0.0209844 52.5205 0.00812861C53.2492 -0.00472721 53.9543 0.265734 54.4875 0.762534L88.2375 34.5125C88.7642 35.0399 89.06 35.7547 89.06 36.5C89.06 37.2454 88.7642 37.9602 88.2375 38.4875Z" fill="white"/>
</svg>
