<svg width="1440" height="46" viewBox="0 0 1440 46" fill="none" xmlns="http://www.w3.org/2000/svg">
<path fill-rule="evenodd" clip-rule="evenodd" d="M1440 0.00069006V46H0V0.0174325C10.3329 0.0584568 20.5593 1.91881 30.1076 5.49609C39.7638 9.11369 48.5377 14.4159 55.9281 21.1003C62.4168 26.9686 67.7275 33.8017 71.6338 41.2925C75.5402 33.8017 80.8509 26.9686 87.3396 21.1003C94.73 14.4159 103.504 9.11369 113.16 5.49609C122.816 1.8785 133.165 0.0167447 143.617 0.0167452C154.069 0.0167456 164.418 1.87849 174.074 5.49609C183.73 9.11369 192.504 14.4159 199.895 21.1003C206.383 26.9686 211.694 33.8017 215.6 41.2925C219.507 33.8017 224.817 26.9686 231.306 21.1003C238.697 14.4159 247.47 9.11369 257.126 5.49609C266.783 1.8785 277.132 0.0167447 287.584 0.0167452C298.035 0.0167456 308.385 1.87849 318.041 5.49609C327.697 9.11369 336.471 14.4159 343.861 21.1003C350.35 26.9686 355.66 33.8017 359.567 41.2925C363.473 33.8017 368.784 26.9686 375.273 21.1003C382.663 14.4159 391.437 9.11369 401.093 5.49609C410.749 1.8785 421.098 0.0167447 431.55 0.0167452C442.002 0.0167456 452.351 1.87849 462.007 5.49609C471.663 9.11369 480.437 14.4159 487.828 21.1003C494.316 26.9686 499.627 33.8017 503.533 41.2925C507.44 33.8017 512.75 26.9686 519.239 21.1003C526.63 14.4159 535.404 9.11369 545.059 5.49609C554.716 1.8785 565.065 0.0167447 575.517 0.0167452C585.968 0.0167456 596.318 1.87849 605.974 5.49609C615.63 9.11369 624.404 14.4159 631.794 21.1003C638.283 26.9686 643.594 33.8017 647.5 41.2925C651.406 33.8017 656.717 26.9686 663.206 21.1003C670.596 14.4159 679.37 9.11369 689.026 5.49609C698.682 1.8785 709.031 0.0167447 719.483 0.0167452C729.935 0.0167456 740.284 1.87849 749.94 5.49609C759.596 9.11369 768.37 14.4159 775.761 21.1003C782.249 26.9686 787.56 33.8017 791.466 41.2925C795.373 33.8017 800.684 26.9686 807.172 21.1003C814.563 14.4159 823.337 9.11369 832.992 5.49609C842.649 1.8785 852.998 0.0167447 863.45 0.0167452C873.901 0.0167456 884.251 1.87849 893.907 5.49609C903.563 9.11369 912.337 14.4159 919.727 21.1003C926.216 26.9686 931.527 33.8017 935.433 41.2925C939.339 33.8017 944.65 26.9686 951.139 21.1003C958.529 14.4159 967.303 9.11369 976.959 5.49609C986.615 1.8785 996.965 0.0167447 1007.42 0.0167452C1017.87 0.0167456 1028.22 1.87849 1037.87 5.49609C1047.53 9.11369 1056.3 14.4159 1063.69 21.1003C1070.18 26.9686 1075.49 33.8017 1079.4 41.2925C1083.31 33.8017 1088.62 26.9686 1095.11 21.1003C1102.5 14.4159 1111.27 9.11369 1120.93 5.49609C1130.58 1.8785 1140.93 0.0167447 1151.38 0.0167452C1161.83 0.0167456 1172.18 1.87849 1181.84 5.49609C1191.5 9.11369 1200.27 14.4159 1207.66 21.1003C1214.15 26.9686 1219.46 33.8017 1223.37 41.2925C1227.27 33.8017 1232.58 26.9686 1239.07 21.1003C1246.46 14.4159 1255.24 9.11369 1264.89 5.49609C1274.55 1.8785 1284.9 0.0167447 1295.35 0.0167452V0C1305.88 0 1316.3 1.86219 1326.03 5.48063C1335.75 9.09906 1344.59 14.4025 1352.03 21.0884C1358.57 26.9581 1363.92 33.7928 1367.85 41.2853C1371.78 33.7928 1377.13 26.9581 1383.67 21.0884C1391.11 14.4025 1399.95 9.09907 1409.67 5.48063C1419.29 1.90223 1429.59 0.0414279 1440 0.00069006Z" fill="black"/>
</svg>
