<svg width="54" height="48" viewBox="0 0 54 48" fill="none" xmlns="http://www.w3.org/2000/svg">
<path d="M52.7814 16.3899C52.6059 16.1895 52.3897 16.0288 52.1472 15.9184C51.9047 15.8081 51.6415 15.7507 51.3751 15.7501H40.9759L28.4064 1.38993C28.2304 1.19042 28.014 1.03063 27.7716 0.921181C27.5291 0.811731 27.2661 0.755127 27.0001 0.755127C26.7341 0.755127 26.4711 0.811731 26.2287 0.921181C25.9862 1.03063 25.7698 1.19042 25.5939 1.38993L13.0243 15.7501H2.62513C2.3579 15.7501 2.09376 15.8072 1.85041 15.9176C1.60706 16.028 1.39011 16.1891 1.21411 16.3902C1.03811 16.5912 0.907128 16.8276 0.829935 17.0835C0.752742 17.3393 0.731125 17.6087 0.766532 17.8735L4.29856 44.372C4.42177 45.2713 4.86581 46.0958 5.54888 46.6936C6.23195 47.2914 7.10804 47.6222 8.01575 47.6251H45.9845C46.8922 47.6222 47.7683 47.2914 48.4514 46.6936C49.1344 46.0958 49.5785 45.2713 49.7017 44.372L53.2337 17.8735C53.2685 17.6083 53.2462 17.3387 53.1681 17.0828C53.0901 16.8269 52.9582 16.5906 52.7814 16.3899ZM16.1251 40.1251C16.0619 40.1286 15.9985 40.1286 15.9353 40.1251C15.4688 40.1274 15.0183 39.9558 14.6716 39.6438C14.3249 39.3318 14.1069 38.9017 14.0603 38.4376L12.7478 25.3126C12.6981 24.8178 12.8469 24.3235 13.1616 23.9385C13.4763 23.5534 13.9311 23.3092 14.4259 23.2595C14.9207 23.2097 15.415 23.3586 15.8 23.6733C16.1851 23.988 16.4293 24.4428 16.479 24.9376L17.7915 38.0626C17.844 38.5571 17.698 39.0522 17.3855 39.4389C17.073 39.8257 16.6196 40.0725 16.1251 40.1251ZM28.8751 38.2501C28.8751 38.7474 28.6776 39.2243 28.326 39.5759C27.9743 39.9275 27.4974 40.1251 27.0001 40.1251C26.5028 40.1251 26.0259 39.9275 25.6743 39.5759C25.3227 39.2243 25.1251 38.7474 25.1251 38.2501V25.1251C25.1251 24.6278 25.3227 24.1509 25.6743 23.7993C26.0259 23.4476 26.5028 23.2501 27.0001 23.2501C27.4974 23.2501 27.9743 23.4476 28.326 23.7993C28.6776 24.1509 28.8751 24.6278 28.8751 25.1251V38.2501ZM18.0072 15.7501L27.0001 5.47274L35.9931 15.7501H18.0072ZM41.2407 25.3126L39.9283 38.4376C39.8818 38.8997 39.6655 39.3281 39.3213 39.6398C38.9771 39.9516 38.5294 40.1245 38.065 40.1251C38.0017 40.1286 37.9384 40.1286 37.8751 40.1251C37.6301 40.1005 37.3924 40.0278 37.1754 39.9113C36.9585 39.7948 36.7667 39.6367 36.6108 39.4461C36.455 39.2554 36.3383 39.036 36.2673 38.8002C36.1962 38.5644 36.1724 38.317 36.197 38.072L37.5095 24.947C37.5592 24.4522 37.8035 23.9974 38.1885 23.6827C38.5735 23.368 39.0678 23.2191 39.5626 23.2688C40.0574 23.3186 40.5122 23.5628 40.8269 23.9478C41.1416 24.3329 41.2905 24.8272 41.2407 25.322V25.3126Z" fill="#FF0000"/>
</svg>
