<svg width="36" height="30" viewBox="0 0 36 30" fill="none" xmlns="http://www.w3.org/2000/svg">
<path d="M35.4999 9.06728C35.5026 10.2577 35.2692 11.4368 34.8132 12.5364C34.3573 13.636 33.6879 14.6343 32.8437 15.4735L18.8905 29.6329C18.7742 29.751 18.6356 29.8448 18.4827 29.9088C18.3298 29.9728 18.1657 30.0058 17.9999 30.0058C17.8341 30.0058 17.67 29.9728 17.5171 29.9088C17.3642 29.8448 17.2256 29.751 17.1093 29.6329L3.15615 15.4735C1.45504 13.7745 0.498537 11.4693 0.497072 9.065C0.495607 6.66072 1.4493 4.35434 3.14834 2.65322C4.84738 0.952107 7.1526 -0.00439254 9.55688 -0.00585769C11.9612 -0.00732284 14.2675 0.946367 15.9687 2.64541L17.9999 4.54385L20.0452 2.63916C21.3147 1.37602 22.9299 0.517292 24.687 0.171396C26.4441 -0.174501 28.2643 0.00793903 29.9178 0.695682C31.5712 1.38342 32.9839 2.54564 33.9774 4.0356C34.9709 5.52556 35.5007 7.27647 35.4999 9.06728Z" fill="#F8CA11"/>
</svg>
