<svg width="60" height="38" viewBox="0 0 60 38" fill="none" xmlns="http://www.w3.org/2000/svg">
<path d="M38.5477 34.8509C38.7322 35.1338 38.8369 35.4613 38.8506 35.7987C38.8644 36.1362 38.7867 36.4711 38.6259 36.7681C38.465 37.0651 38.2269 37.3131 37.9368 37.4859C37.6466 37.6588 37.3152 37.7501 36.9774 37.7501H2.39772C2.05998 37.7501 1.72851 37.6588 1.43835 37.4859C1.14819 37.3131 0.910108 37.0651 0.749254 36.7681C0.5884 36.4711 0.510749 36.1362 0.524505 35.7987C0.538262 35.4613 0.642915 35.1338 0.827408 34.8509C3.46672 30.7883 7.34887 27.688 11.8946 26.0126C9.38162 24.3396 7.47375 21.9023 6.45311 19.0611C5.43246 16.22 5.35324 13.1258 6.22715 10.2361C7.10106 7.34644 8.88171 4.81471 11.3058 3.01531C13.7298 1.21592 16.6686 0.244385 19.6876 0.244385C22.7065 0.244385 25.6453 1.21592 28.0693 3.01531C30.4934 4.81471 32.2741 7.34644 33.148 10.2361C34.0219 13.1258 33.9427 16.22 32.922 19.0611C31.9014 21.9023 29.9935 24.3396 27.4805 26.0126C32.0263 27.688 35.9084 30.7883 38.5477 34.8509ZM59.1516 34.8157C56.5116 30.7702 52.6381 27.6833 48.1055 26.0126C51.0722 24.0142 53.1659 20.9604 53.9604 17.4728C54.7548 13.9851 54.1904 10.3258 52.382 7.23968C50.5735 4.15354 47.657 1.87252 44.226 0.860941C40.7951 -0.150643 37.1076 0.183237 33.9141 1.79462C33.792 1.85767 33.6853 1.9468 33.6014 2.05569C33.5176 2.16458 33.4587 2.29058 33.429 2.42475C33.3992 2.55892 33.3993 2.69799 33.4293 2.83211C33.4593 2.96624 33.5184 3.09213 33.6024 3.20087C35.977 6.16293 37.3408 9.80753 37.4939 13.6008C37.647 17.3941 36.5814 21.1368 34.4532 24.2806C34.3156 24.486 34.2648 24.7375 34.3118 24.9802C34.3587 25.223 34.4997 25.4373 34.704 25.5767C37.4787 27.5132 39.8541 29.9666 41.7001 32.8024C42.4445 33.9426 42.7486 35.3147 42.5555 36.6626C42.5338 36.7967 42.5415 36.9339 42.578 37.0647C42.6145 37.1955 42.679 37.3169 42.7671 37.4203C42.8551 37.5237 42.9646 37.6068 43.0879 37.6637C43.2113 37.7207 43.3455 37.7501 43.4813 37.7501H57.6141C58.027 37.7502 58.4284 37.6141 58.756 37.3628C59.0835 37.1115 59.319 36.7591 59.4258 36.3603C59.491 36.098 59.5003 35.8249 59.4531 35.5588C59.4058 35.2927 59.3031 35.0395 59.1516 34.8157Z" fill="#21409C"/>
</svg>
