<svg width="56" height="38" viewBox="0 0 56 38" fill="none" xmlns="http://www.w3.org/2000/svg">
<path d="M55.1374 12.934L49.6541 1.90923C49.4521 1.50345 49.1726 1.14162 48.8314 0.844425C48.4902 0.547226 48.0942 0.320471 47.6658 0.177112C47.2374 0.0337516 46.7851 -0.023406 46.3348 0.00890295C45.8844 0.0412119 45.4448 0.162355 45.041 0.365413L39.6975 3.04928L28.4409 0.0566499C28.1521 -0.0188833 27.8488 -0.0188833 27.56 0.0566499L16.3034 3.04928L10.9598 0.365413C10.556 0.162355 10.1164 0.0412119 9.66608 0.00890295C9.21572 -0.023406 8.76344 0.0337516 8.33507 0.177112C7.9067 0.320471 7.51062 0.547226 7.16946 0.844425C6.8283 1.14162 6.54874 1.50345 6.34674 1.90923L0.863491 12.9319C0.661427 13.3376 0.540878 13.7794 0.508727 14.232C0.476576 14.6845 0.533454 15.139 0.676112 15.5695C0.81877 16 1.04441 16.398 1.34016 16.7409C1.6359 17.0837 1.99595 17.3646 2.39975 17.5676L8.20099 20.4847L20.1236 29.0415C20.2993 29.1671 20.4968 29.2587 20.7059 29.3114L34.457 32.7661C34.745 32.8387 35.0467 32.8351 35.3329 32.7556C35.6191 32.6762 35.8799 32.5236 36.0899 32.3127L44.6844 23.676L47.9245 20.4199L53.6011 17.5676C54.4161 17.1577 55.0357 16.4393 55.3237 15.5704C55.6118 14.7015 55.5448 13.7533 55.1374 12.934ZM43.3436 20.1392L35.9503 14.1885C35.6191 13.922 35.2014 13.7879 34.7778 13.8123C34.3541 13.8366 33.9544 14.0175 33.6556 14.3202C29.8289 18.1938 25.5639 17.7037 22.8438 15.9763L32.1344 6.90774H38.9691L44.8154 18.6559L43.3436 20.1392ZM34.3474 29.1776L21.8597 26.0403L11.2885 18.4529L17.3047 6.36147L28.0004 3.5135L30.1061 4.07273L20.4373 13.5041L20.4201 13.5235C20.0562 13.8892 19.7786 14.3324 19.6079 14.8204C19.4371 15.3084 19.3776 15.8287 19.4337 16.3428C19.4898 16.857 19.6601 17.3519 19.9319 17.7912C20.2038 18.2304 20.5704 18.6026 21.0046 18.8804C25.4221 21.7154 30.7528 21.2555 34.9512 17.8008L40.8921 22.5964L34.3474 29.1776ZM28.8212 36.6915C28.7283 37.0649 28.5141 37.3964 28.2124 37.6334C27.9108 37.8704 27.539 37.9995 27.156 38C27.0148 37.9998 26.8741 37.9824 26.737 37.9482L17.7752 35.6962C17.5658 35.6442 17.3682 35.5526 17.1929 35.4263L11.5313 31.3627C11.1832 31.088 10.954 30.689 10.8913 30.2487C10.8286 29.8084 10.9373 29.3608 11.1948 28.999C11.4524 28.6373 11.8388 28.3893 12.2737 28.3067C12.7086 28.2242 13.1584 28.3133 13.5295 28.5557L18.9247 32.4293L27.5707 34.5971C28.0129 34.7083 28.393 34.9914 28.6275 35.3841C28.862 35.7769 28.9317 36.2472 28.8212 36.6915Z" fill="#F8CA11"/>
</svg>
