<svg width="30" height="33" viewBox="0 0 30 33" fill="none" xmlns="http://www.w3.org/2000/svg">
<path d="M27.5 3H23.75V1.75C23.75 1.41848 23.6183 1.10054 23.3839 0.866116C23.1495 0.631696 22.8315 0.5 22.5 0.5C22.1685 0.5 21.8505 0.631696 21.6161 0.866116C21.3817 1.10054 21.25 1.41848 21.25 1.75V3H8.75V1.75C8.75 1.41848 8.6183 1.10054 8.38388 0.866116C8.14946 0.631696 7.83152 0.5 7.5 0.5C7.16848 0.5 6.85054 0.631696 6.61612 0.866116C6.3817 1.10054 6.25 1.41848 6.25 1.75V3H2.5C1.83696 3 1.20107 3.26339 0.732233 3.73223C0.263392 4.20107 0 4.83696 0 5.5V30.5C0 31.163 0.263392 31.7989 0.732233 32.2678C1.20107 32.7366 1.83696 33 2.5 33H27.5C28.163 33 28.7989 32.7366 29.2678 32.2678C29.7366 31.7989 30 31.163 30 30.5V5.5C30 4.83696 29.7366 4.20107 29.2678 3.73223C28.7989 3.26339 28.163 3 27.5 3ZM6.25 8V6.75C6.25 6.41848 6.3817 6.10054 6.61612 5.86612C6.85054 5.6317 7.16848 5.5 7.5 5.5C7.83152 5.5 8.14946 5.6317 8.38388 5.86612C8.6183 6.10054 8.75 6.41848 8.75 6.75V8C8.75 8.33152 8.6183 8.64946 8.38388 8.88388C8.14946 9.1183 7.83152 9.25 7.5 9.25C7.16848 9.25 6.85054 9.1183 6.61612 8.88388C6.3817 8.64946 6.25 8.33152 6.25 8ZM19.15 24.1047C17.9528 25.0964 16.6557 25.961 15.2797 26.6844C15.1929 26.7278 15.0971 26.7504 15 26.7504C14.9029 26.7504 14.8071 26.7278 14.7203 26.6844C13.3443 25.961 12.0472 25.0964 10.85 24.1047C8.2125 21.9063 6.875 19.6422 6.875 17.375C6.87542 16.4186 7.1892 15.4887 7.76832 14.7276C8.34745 13.9666 9.16001 13.4162 10.0817 13.1608C11.0033 12.9054 11.9832 12.959 12.8715 13.3135C13.7597 13.6679 14.5074 14.3037 15 15.1234C15.4926 14.3037 16.2403 13.6679 17.1285 13.3135C18.0168 12.959 18.9967 12.9054 19.9183 13.1608C20.84 13.4162 21.6525 13.9666 22.2317 14.7276C22.8108 15.4887 23.1246 16.4186 23.125 17.375C23.125 19.6422 21.7875 21.9063 19.15 24.1047ZM23.75 8C23.75 8.33152 23.6183 8.64946 23.3839 8.88388C23.1495 9.1183 22.8315 9.25 22.5 9.25C22.1685 9.25 21.8505 9.1183 21.6161 8.88388C21.3817 8.64946 21.25 8.33152 21.25 8V6.75C21.25 6.41848 21.3817 6.10054 21.6161 5.86612C21.8505 5.6317 22.1685 5.5 22.5 5.5C22.8315 5.5 23.1495 5.6317 23.3839 5.86612C23.6183 6.10054 23.75 6.41848 23.75 6.75V8Z" fill="#FF0000"/>
</svg>
