<svg width="34" height="34" viewBox="0 0 34 34" fill="none" xmlns="http://www.w3.org/2000/svg">
<path d="M30.0001 9.40468C29.8519 9.47544 29.7191 9.5747 29.6093 9.69679C29.4995 9.81888 29.4149 9.96141 29.3602 10.1162C29.3055 10.2711 29.2818 10.4351 29.2905 10.5991C29.2993 10.7631 29.3402 10.9237 29.411 11.0719C30.8783 14.1329 31.1626 17.6282 30.2094 20.8862C29.2562 24.1441 27.1327 26.9349 24.247 28.7224C21.3612 30.5099 17.9166 31.1679 14.5751 30.5701C11.2337 29.9723 8.23095 28.1608 6.14391 25.4837C4.05687 22.8065 3.03273 19.4526 3.26825 16.0662C3.50377 12.6798 4.98234 9.49996 7.41989 7.1375C9.85743 4.77503 13.082 3.39664 16.4741 3.26714C19.8661 3.13764 23.1864 4.26618 25.797 6.43593L22.2392 9.99374C20.4674 8.67366 18.2618 8.07272 16.0653 8.3116C13.8688 8.55048 11.844 9.61149 10.3974 11.2816C8.95083 12.9517 8.18963 15.1072 8.26665 17.3153C8.34366 19.5234 9.25319 21.6207 10.8126 23.1859C12.0664 24.4393 13.6714 25.2822 15.415 25.6031C17.1586 25.924 18.9586 25.7076 20.5765 24.9827C22.1943 24.2578 23.5539 23.0585 24.475 21.5437C25.3961 20.0289 25.8353 18.27 25.7345 16.5C25.7252 16.3358 25.6838 16.1751 25.6124 16.027C25.5411 15.8789 25.4412 15.7462 25.3186 15.6367C25.196 15.5272 25.0531 15.4428 24.8979 15.3885C24.7427 15.3343 24.5783 15.3111 24.4142 15.3203C24.25 15.3295 24.0893 15.371 23.9412 15.4424C23.793 15.5137 23.6604 15.6135 23.5509 15.7361C23.4413 15.8587 23.357 16.0017 23.3027 16.1569C23.2484 16.3121 23.2252 16.4765 23.2345 16.6406C23.3014 17.7986 23.0447 18.9524 22.4932 19.9728C21.9417 20.9933 21.1171 21.8401 20.1116 22.4186C19.1062 22.997 17.9597 23.2842 16.8003 23.2481C15.6409 23.212 14.5144 22.854 13.547 22.2141L17.2892 18.4719L23.1876 12.5812L32.8845 2.89374C33.0006 2.7776 33.0927 2.63973 33.1556 2.48798C33.2184 2.33624 33.2508 2.17361 33.2508 2.00936C33.2508 1.84512 33.2184 1.68249 33.1556 1.53074C33.0927 1.379 33.0006 1.24113 32.8845 1.12499C32.7683 1.00885 32.6305 0.916726 32.4787 0.853873C32.327 0.791019 32.1643 0.758669 32.0001 0.758669C31.8359 0.758669 31.6732 0.791019 31.5215 0.853873C31.3697 0.916726 31.2319 1.00885 31.1157 1.12499L27.5735 4.65624C24.3844 1.90906 20.2538 0.506512 16.0513 0.743904C11.8488 0.981295 7.90239 2.8401 5.04297 5.92895C2.18355 9.0178 0.634236 13.0957 0.72125 17.304C0.808264 21.5123 2.52481 25.5226 5.50947 28.4906C8.21939 31.2054 11.8023 32.874 15.6242 33.2012C19.446 33.5284 23.2604 32.4931 26.3924 30.2784C29.5243 28.0637 31.7718 24.8125 32.7372 21.1001C33.7026 17.3878 33.3236 13.4536 31.6673 9.99374C31.5965 9.84557 31.4973 9.71278 31.3752 9.60298C31.2531 9.49318 31.1106 9.40851 30.9557 9.3538C30.8009 9.2991 30.6368 9.27544 30.4729 9.28417C30.3089 9.2929 30.1482 9.33385 30.0001 9.40468Z" fill="#21409C"/>
</svg>
