<svg width="50" height="46" viewBox="0 0 50 46" fill="none" xmlns="http://www.w3.org/2000/svg">
<path d="M49.3023 14.9867L45.9414 3.21875C45.7153 2.43808 45.2428 1.75148 44.5944 1.26147C43.946 0.771462 43.1565 0.504343 42.3438 0.5H7.65625C6.84352 0.504343 6.054 0.771462 5.40558 1.26147C4.75717 1.75148 4.28465 2.43808 4.05859 3.21875L0.697656 14.9867C0.649609 15.1536 0.625153 15.3264 0.625 15.5V19.25C0.625 20.7054 0.96386 22.1409 1.61474 23.4426C2.26563 24.7444 3.21066 25.8767 4.375 26.75V43.625C4.375 44.1223 4.57254 44.5992 4.92418 44.9508C5.27581 45.3025 5.75272 45.5 6.25 45.5H43.75C44.2473 45.5 44.7242 45.3025 45.0758 44.9508C45.4275 44.5992 45.625 44.1223 45.625 43.625V26.75C46.7893 25.8767 47.7344 24.7444 48.3853 23.4426C49.0361 22.1409 49.375 20.7054 49.375 19.25V15.5C49.3748 15.3264 49.3504 15.1536 49.3023 14.9867ZM15.625 19.25C15.6247 20.2173 15.3749 21.1681 14.8998 22.0107C14.4248 22.8533 13.7404 23.5591 12.913 24.06C12.0855 24.5609 11.1428 24.84 10.176 24.8703C9.20921 24.9005 8.25094 24.681 7.39375 24.2328C7.26332 24.1313 7.11985 24.0477 6.96719 23.9844C6.17283 23.4758 5.5191 22.7757 5.06614 21.9484C4.61317 21.1211 4.3755 20.1932 4.375 19.25V17.375H15.625V19.25ZM30.625 19.25C30.625 20.7418 30.0324 22.1726 28.9775 23.2275C27.9226 24.2824 26.4918 24.875 25 24.875C23.5082 24.875 22.0774 24.2824 21.0225 23.2275C19.9676 22.1726 19.375 20.7418 19.375 19.25V17.375H30.625V19.25ZM45.625 19.25C45.6242 20.1934 45.3862 21.1215 44.9328 21.9488C44.4794 22.7761 43.8253 23.4761 43.0305 23.9844C42.8798 24.0479 42.738 24.1306 42.6086 24.2305C41.7515 24.6791 40.7932 24.8991 39.8262 24.8692C38.8593 24.8393 37.9164 24.5606 37.0887 24.0599C36.2609 23.5592 35.5763 22.8535 35.1009 22.0109C34.6256 21.1683 34.3755 20.2174 34.375 19.25V17.375H45.625V19.25Z" fill="#21409C"/>
</svg>
