<svg width="40" height="30" viewBox="0 0 40 30" fill="none" xmlns="http://www.w3.org/2000/svg">
<path d="M38.6858 4.56563L30.5983 0.15625C30.415 0.0548587 30.2092 0.00113072 29.9998 0H24.9998C24.6683 0 24.3504 0.131696 24.1159 0.366117C23.8815 0.600537 23.7498 0.918479 23.7498 1.25C23.7498 2.24456 23.3547 3.19839 22.6515 3.90165C21.9482 4.60491 20.9944 5 19.9998 5C19.0053 5 18.0514 4.60491 17.3482 3.90165C16.6449 3.19839 16.2498 2.24456 16.2498 1.25C16.2498 0.918479 16.1181 0.600537 15.8837 0.366117C15.6493 0.131696 15.3313 0 14.9998 0H9.99982C9.78987 0.000868856 9.58352 0.0546052 9.39982 0.15625L1.31388 4.56563C0.737473 4.87024 0.305387 5.391 0.112363 6.01371C-0.0806613 6.63643 -0.018869 7.31028 0.284191 7.8875L3.29513 13.6391C3.51406 14.0526 3.84222 14.3981 4.24389 14.6381C4.64557 14.878 5.10537 15.0032 5.57325 15H8.74982V27.5C8.74982 28.163 9.01321 28.7989 9.48205 29.2678C9.95089 29.7366 10.5868 30 11.2498 30H28.7498C29.4129 30 30.0487 29.7366 30.5176 29.2678C30.9864 28.7989 31.2498 28.163 31.2498 27.5V15H34.4279C34.8958 15.0032 35.3556 14.878 35.7573 14.6381C36.159 14.3981 36.4871 14.0526 36.7061 13.6391L39.717 7.8875C40.0199 7.31009 40.0815 6.63609 39.8882 6.01335C39.6949 5.39061 39.2624 4.86997 38.6858 4.56563ZM5.57325 12.5C5.55016 12.5011 5.52744 12.4939 5.50919 12.4797L2.51388 6.75938L8.74982 3.35625V12.5H5.57325ZM34.4904 12.4781C34.4818 12.4859 34.4717 12.4919 34.4607 12.4956C34.4496 12.4994 34.438 12.5009 34.4264 12.5H31.2498V3.35625L37.4873 6.75938L34.4904 12.4781Z" fill="#FF0000"/>
</svg>
